<svg xmlns="http://www.w3.org/2000/svg" viewBox="0 0 595.71 263.38">
<g fill="#000000" id="Duvar"><g id="LWPOLYLINE"><polygon points="101.78 221.55 101.78 92.14 121.19 92.14 121.19 88.86 124.47 88.86 124.47 92.14 153.6 92.14 153.6 95.35 151.45 95.35 151.45 116.91 148.93 116.91 148.93 99.01 105.44 99.01 105.44 138.53 148.93 138.53 148.93 136.39 151.45 136.39 151.45 141.75 105.06 141.75 105.06 218.52 113.82 218.52 113.82 222.37 101.78 221.55" /></g>
<g fill="#000000" id="LWPOLYLINE-2" data-name="LWPOLYLINE"><polygon points="175.22 226.59 175.22 134.18 188.14 134.18 188.14 95.35 173.01 95.35 173.01 92.14 193.56 92.14 193.56 95.35 191.42 95.35 191.42 137.46 178.43 137.46 178.43 171.44 198.92 171.44 198.92 203.08 178.43 203.08 178.43 224.57 194.95 224.57 194.95 228.48 175.22 226.59" style="fill:none;stroke:#000;stroke-linecap:round;stroke-linejoin:round;stroke-width:0.7086614175px"/></g>
<g fill="#000000" id="LWPOLYLINE-3" data-name="LWPOLYLINE"><polygon points="329.28 241.66 329.28 237.75 344.15 237.75 344.15 140.67 331.17 140.67 331.17 95.35 329.03 95.35 329.03 92.14 361.93 92.14 361.93 95.35 347.37 95.35 347.37 171.44 369.5 171.44 369.5 195.2 347.37 195.2 347.37 235.54 360.8 235.54 360.8 244.75 329.28 241.66" style="fill:none;stroke:#000;stroke-linecap:round;stroke-linejoin:round;stroke-width:0.7086614175px"/></g>
<g fill="#000000" id="LWPOLYLINE-4" data-name="LWPOLYLINE"><polygon points="306.33 126.11 307.4 126.11 307.4 148.24 268.01 148.24 268.01 235.67 264.79 235.35 264.79 149.31 256.16 149.31 256.16 137.46 215.12 137.46 215.12 114.26 217.83 114.26 217.83 133.74 265.42 133.74 265.42 95.35 217.7 95.35 217.7 96.99 215.12 96.99 215.12 95.35 212.98 95.35 212.98 92.14 309.61 92.14 309.61 95.35 307.4 95.35 307.4 106.7 304.44 106.7 304.44 95.98 272.23 95.98 272.23 145.65 304.44 145.65 304.44 126.11 306.33 126.11" /></g>
<g fill="#000000" id="CIRCLE"><circle cx="528.13" cy="181.68" r="11.88" style="fill:none;stroke:#000;stroke-linecap:round;stroke-linejoin:round;stroke-width:0.7086614175px"/></g><g id="LWPOLYLINE-5" data-name="LWPOLYLINE"><polyline points="364.01 21.98 364.01 23.05 387.88 23.05 387.88 5.78 517.95 5.78 517.95 23.05 541.71 23.05 541.71 4.7 583.76 4.7 583.76 0.35 519.02 0.35 380.27 0.35 380.27 20.46 364.01 20.46 364.01 23.05" /></g>
<g fill="#000000" id="LWPOLYLINE-6" data-name="LWPOLYLINE"><polyline points="340.5 23.05 340.5 20.46 333.82 20.46 333.82 16.55 14.35 16.55 14.35 19.77 27.33 19.77 27.33 86.71 13.28 86.71 13.28 89.93 27.33 89.93 27.33 164 0.35 164 0.35 195.2 14.35 195.2 14.35 215.56 33.95 216.88 33.95 213.04 26.26 213.04 26.26 181.71 33.76 181.71 33.76 99.64 73.73 99.64 73.73 85.64 70.51 85.64 70.51 96.42 33.76 96.42 33.76 30.61 70.51 30.61 70.51 66.23 71.46 66.23 75.37 66.23 75.37 62.95 73.73 62.95 73.73 21.98 116.72 21.98 116.72 42.59 118.11 42.59 118.11 21.98 157.38 21.98 157.38 42.59 158.76 42.59 158.76 21.98 196.33 21.98 196.33 63.64 176.23 63.64 176.23 62.95 94.78 62.95 94.78 64.02 94.78 66.23 121.19 66.23 121.19 69.44 124.47 69.44 124.47 66.23 221.61 66.23 221.61 62.95 214.05 62.95 214.05 56.52 201.13 56.52 201.13 23.05 288.56 23.05 288.56 62.95 241.03 62.95 241.03 63.96 241.03 66.23 304.63 66.23 304.63 63.52 293.28 63.52 293.28 29.92 304.06 29.92 304.06 26.7 325.5 26.7 325.5 63.64 321.9 63.64 321.9 66.23 341.44 66.23 341.44 62.95 328.46 62.95 328.46 23.05 340.5 23.05 340.5 21.98" /></g>
<g fill="#000000" id="LWPOLYLINE-7" data-name="LWPOLYLINE"><polygon points="419.17 92.14 419.17 201.13 400.82 201.13 400.82 197.85 415.95 197.85 415.95 95.35 380.27 95.35 380.27 92.14 419.17 92.14" /></g></g>
<g fill="#000000" id="BA_wall_gyps"><g id="LWPOLYLINE-8" data-name="LWPOLYLINE"><polyline points="352.25 15.14 359.81 4.35 344.7 4.35 352.25 15.14" /></g></g><g id="Balkon">
<g fill="#000000" id="LWPOLYLINE-9" data-name="LWPOLYLINE"><polygon points="14.35 229.55 14.35 219.02 175.53 230.06 403.72 252.37 462.35 246.89 462.35 202.2 548.71 202.2 548.71 4.7 583.76 4.7 583.76 0.35 594.15 0.35 595.35 37.29 588.29 245.63 402.46 263.03 179.38 241.03 14.35 229.55" /></g></g>
<g fill="#000000" id="PDF_glass"><g id="LWPOLYLINE-10" data-name="LWPOLYLINE"><polygon points="13.03 217.95 174.22 228.98 402.33 251.29 459.87 245.91 459.87 201.12 546.23 201.12 546.23 4.7 547.31 4.7 547.31 202.2 460.95 202.2 460.95 246.89 402.33 252.37 174.13 230.06 12.95 219.02 13.03 217.95" /></g></g></svg>