<svg xmlns="http://www.w3.org/2000/svg" viewBox="0 0 595.71 263.38">
<g id="PDF_wall_gyps" fill="#000000">
<g id="LWPOLYLINE" fill="#000000">
<line x1="179.76" y1="168.03" x2="179.76" y2="97.87"  />
</g>
<g id="LWPOLYLINE-2" fill="#000000" data-name="LWPOLYLINE"><polygon points="493.93 41.83 493.93 171.25 474.51 171.25 474.51 174.52 471.24 174.52 471.24 171.25 442.11 171.25 442.11 168.03 444.26 168.03 444.26 146.47 446.78 146.47 446.78 164.38 490.27 164.38 490.27 124.85 446.78 124.85 446.78 126.99 444.26 126.99 444.26 121.64 490.65 121.64 490.65 44.86 481.89 44.86 481.89 41.01 493.93 41.83" /></g>
<g id="LWPOLYLINE-3" fill="#000000" data-name="LWPOLYLINE"><polygon points="420.49 36.79 420.49 129.2 407.57 129.2 407.57 168.03 422.7 168.03 422.7 171.25 402.15 171.25 402.15 168.03 404.29 168.03 404.29 125.92 417.28 125.92 417.28 91.95 396.79 91.95 396.79 60.3 417.28 60.3 417.28 38.81 400.76 38.81 400.76 34.9 420.49 36.79" /></g>
<g id="LWPOLYLINE-4" fill="#000000" data-name="LWPOLYLINE"><polygon points="266.43 21.72 266.43 25.63 251.55 25.63 251.55 122.71 264.54 122.71 264.54 168.03 266.68 168.03 266.68 171.25 233.78 171.25 233.78 168.03 248.34 168.03 248.34 91.95 226.21 91.95 226.21 68.18 248.34 68.18 248.34 27.84 234.91 27.84 234.91 18.64 266.43 21.72" /></g>
<g id="LWPOLYLINE-5" fill="#000000"  data-name="LWPOLYLINE"><polygon points="289.38 137.27 288.3 137.27 288.3 115.14 327.7 115.14 327.7 27.71 330.92 28.03 330.92 114.07 339.55 114.07 339.55 125.92 380.59 125.92 380.59 149.12 377.88 149.12 377.88 129.64 330.29 129.64 330.29 168.03 378 168.03 378 166.39 380.59 166.39 380.59 168.03 382.73 168.03 382.73 171.25 286.1 171.25 286.1 168.03 288.3 168.03 288.3 156.68 291.27 156.68 291.27 167.4 323.48 167.4 323.48 117.73 291.27 117.73 291.27 137.27 289.38 137.27"  /></g>
<g id="LWPOLYLINE-6" fill="#000000" data-name="LWPOLYLINE"><polyline points="231.7 241.41 231.7 240.33 207.82 240.33 207.82 257.61 77.76 257.61 77.76 240.33 54 240.33 54 258.68 11.95 258.68 11.95 263.03 76.69 263.03 215.43 263.03 215.43 242.92 231.7 242.92 231.7 240.33" /></g></g>
 <g id="PDF_glass" fill="#000000">
<g id="LWPOLYLINE-8" fill="#000000"  data-name="LWPOLYLINE"><line x1="298.96" y1="21.98" x2="299.02" y2="21.47" />
</g> 
 <g id="LWPOLYLINE-9" fill="#000000" data-name="LWPOLYLINE">
<polyline points="192.3 11.01 191.99 11.01 133.36 16.49 133.36 61.18 47 61.18 47 258.68 11.95 258.68 11.95 263.03 215.43 263.03 215.43 242.92 261.89 242.92 261.89 246.83 581.36 246.83 581.36 243.61 568.38 243.61 568.38 176.67 582.43 176.67 582.43 173.45 568.38 173.45 568.38 99.38 595.35 99.38 595.35 68.18 581.36 68.18 581.36 44.36 420.18 33.32 191.99 11.01" /></g>
</g> 
<g id="_0" data-name="0" fill="#000000">
<g id="CIRCLE" fill="#000000">
<circle cx="67.58" cy="81.7" r="11.88"  />
</g>
<g id="LWPOLYLINE-10" fill="#000000" data-name="LWPOLYLINE"><polygon points="176.54 171.25 176.54 62.26 194.88 62.26 194.88 65.53 179.76 65.53 179.76 168.03 215.43 168.03 215.43 171.25 176.54 171.25"  /></g></g>
<g id="PDF_mat_timber" fill="#000000">
<g id="LWPOLYLINE-11" fill="#000000" data-name="LWPOLYLINE"><line x1="261.89" y1="246.83" x2="322.66" y2="246.83"  /></g></g>
<g id="BA_wall_gyps" fill="#000000">
<g id="LWPOLYLINE-12" fill="#000000" data-name="LWPOLYLINE"><polyline points="243.45 248.24 235.9 259.03 251.01 259.03 243.45 248.24"  /></g></g>
<g id="BA_layout" fill="#000000">
<g id="LWPOLYLINE-13" fill="#000000" data-name="LWPOLYLINE"><polygon points="581.36 33.83 581.36 44.36 420.18 33.32 191.99 11.01 133.36 16.49 133.36 61.18 47 61.18 47 258.68 11.95 258.68 11.95 263.03 1.55 263.03 0.35 226.09 7.41 17.75 193.25 0.35 416.33 22.35 581.36 33.83" />

</g></g>
</svg>